<svg width="1600" height="900" viewBox="0 0 1600 900" fill="none" xmlns="http://www.w3.org/2000/svg" role="img" aria-label="Destination placeholder">
  <rect width="1600" height="900" rx="48" fill="#0F172A"/>
  <circle cx="1220" cy="200" r="260" fill="#1A6B8A" fill-opacity="0.35"/>
  <circle cx="320" cy="690" r="320" fill="#2E9E6B" fill-opacity="0.24"/>
  <circle cx="1130" cy="680" r="210" fill="#F47B20" fill-opacity="0.22"/>
  <path d="M160 640C300 550 420 560 560 620C700 680 810 720 960 680C1110 640 1230 520 1440 560V900H160V640Z" fill="#E2E8F0" fill-opacity="0.14"/>
  <path d="M120 590C250 500 390 490 520 540C650 590 760 640 910 610C1060 580 1160 470 1420 500" stroke="#E2E8F0" stroke-opacity="0.35" stroke-width="10" stroke-linecap="round"/>
  <text x="120" y="180" fill="#F8FAFC" font-family="Arial, Helvetica, sans-serif" font-size="72" font-weight="700">TravelMind</text>
  <text x="120" y="248" fill="#CBD5E1" font-family="Arial, Helvetica, sans-serif" font-size="34">Destination preview unavailable</text>
  <text x="120" y="300" fill="#CBD5E1" font-family="Arial, Helvetica, sans-serif" font-size="28">A graceful fallback keeps the results screen readable.</text>
</svg>
